<svg id="Layer_1" data-name="Layer 1" xmlns="http://www.w3.org/2000/svg" viewBox="0 0 189.95 353.27"><defs><style>.cls-1{fill:#e6e7e8;stroke-width:2px;}.cls-1,.cls-2,.cls-6{stroke:#231f20;stroke-miterlimit:10;}.cls-1,.cls-2{stroke-linecap:round;}.cls-2,.cls-6{fill:none;}.cls-2{stroke-width:1.57px;}.cls-3{fill:#231f20;}.cls-4,.cls-5{font-size:30px;}.cls-4{font-family:Arial;}.cls-5{font-family:Myriad Pro;}.cls-6{stroke-width:1.6px;}</style></defs><title>enginetraffic</title><rect class="cls-1" x="37.73" y="89.94" width="151.22" height="97.56" rx="13.73" ry="13.73"/><path class="cls-2" d="M136.71,335.57c-48.42-56-64.36-149-.31-212.47" transform="translate(-93.38 -98.64)"/><polygon class="cls-3" points="47.02 241.05 44.24 233.1 43.08 236.6 39.47 237.32 47.02 241.05"/><polygon class="cls-3" points="47.02 20.64 43.67 28.36 42.77 24.79 39.22 23.81 47.02 20.64"/><text class="cls-4" transform="translate(67.49 25.74)">Clients</text><text class="cls-4" transform="translate(75 148.54)">Proxy</text><text class="cls-5" transform="translate(69.99 313.75)">En<tspan x="31.41" y="0">g</tspan><tspan x="48" y="0">ine</tspan></text><line class="cls-6" x1="113.34" y1="239.3" x2="113.34" y2="208.39"/><polygon class="cls-3" points="113.34 244.95 116.59 236.99 113.34 238.88 110.09 236.99 113.34 244.95"/><polygon class="cls-3" points="113.34 202.74 116.59 210.7 113.34 208.81 110.09 210.7 113.34 202.74"/><line class="cls-6" x1="113.34" y1="69.73" x2="113.34" y2="46.19"/><polygon class="cls-3" points="113.34 75.38 116.59 67.42 113.34 69.3 110.09 67.42 113.34 75.38"/><polygon class="cls-3" points="113.34 40.55 116.59 48.51 113.34 46.62 110.09 48.51 113.34 40.55"/><rect class="cls-1" x="37.73" y="254.71" width="151.22" height="97.56" rx="16.77" ry="16.77"/><text class="cls-4" transform="translate(66.63 312.93)">Engine</text><text x="-93.38" y="-98.64"/></svg>