<svg id="Layer_1" data-name="Layer 1" xmlns="http://www.w3.org/2000/svg" viewBox="0 0 521.62 221.25"><defs><style>.cls-1,.cls-5{fill:#e6e7e8;stroke-linecap:round;}.cls-1,.cls-3,.cls-5{stroke:#231f20;stroke-miterlimit:10;}.cls-1{stroke-width:1.66px;}.cls-2,.cls-6{font-size:30px;}.cls-2{font-family:Myriad Pro;}.cls-3{fill:none;stroke-width:1.6px;}.cls-4{fill:#231f20;}.cls-5{stroke-width:2.43px;}.cls-6,.cls-8{font-family:Arial;}.cls-7{letter-spacing:-1px;}.cls-8{font-size:18px;}</style></defs><title>engineapiarchitecture</title><rect class="cls-1" x="0.83" y="0.83" width="156.63" height="61.81" rx="13.73" ry="13.73"/><text class="cls-2" transform="translate(139.74 209.47)">En<tspan x="31.41" y="0">g</tspan><tspan x="48" y="0">ine</tspan></text><line class="cls-3" x1="156.82" y1="133.27" x2="88.02" y2="79.73"/><polygon class="cls-4" points="161.28 136.74 156.99 129.29 156.49 133.01 153 134.42 161.28 136.74"/><polygon class="cls-4" points="83.56 76.26 91.84 78.58 88.36 79.99 87.85 83.71 83.56 76.26"/><rect class="cls-5" x="107.48" y="150.43" width="313.25" height="69.6" rx="16.77" ry="16.77"/><text class="cls-6" transform="translate(191.45 198.65)">Engine<tspan class="cls-7" x="93.41" y="0"> </tspan><tspan x="100.09" y="0">API</tspan></text><text x="-326.63" y="-210.92"/><rect class="cls-1" x="183.05" y="0.83" width="156.63" height="61.81" rx="13.73" ry="13.73"/><text class="cls-8" transform="translate(205.43 37.72)">Extension<tspan x="79.05" y="0"> </tspan><tspan x="83.06" y="0">API</tspan></text><text class="cls-8" transform="translate(10.11 37.72)">Qlik Sense Client</text><rect class="cls-1" x="361.87" y="0.83" width="156.63" height="61.81" rx="13.73" ry="13.73"/><text class="cls-8" transform="translate(382.16 36.55)">Capabilites<tspan x="89.05" y="0"> </tspan><tspan x="93.06" y="0">API</tspan></text><line class="cls-3" x1="264.11" y1="133.56" x2="264.11" y2="82.28"/><polygon class="cls-4" points="264.11 139.21 267.36 131.25 264.11 133.13 260.86 131.25 264.11 139.21"/><polygon class="cls-4" points="264.11 76.64 267.36 84.59 264.11 82.71 260.86 84.59 264.11 76.64"/><line class="cls-3" x1="391.19" y1="134.1" x2="447.71" y2="78.9"/><polygon class="cls-4" points="387.15 138.05 395.12 134.82 391.5 133.81 390.57 130.16 387.15 138.05"/><polygon class="cls-4" points="451.75 74.95 448.33 82.84 447.41 79.19 443.79 78.19 451.75 74.95"/></svg>