<svg id="Layer_1" data-name="Layer 1" xmlns="http://www.w3.org/2000/svg" viewBox="0 0 451.39 341.58"><defs><style>.cls-1{fill:#fff;}.cls-1,.cls-11,.cls-12,.cls-4,.cls-6,.cls-7,.cls-8,.cls-9{stroke:#000;}.cls-1,.cls-11,.cls-12,.cls-4,.cls-5,.cls-6,.cls-7,.cls-8,.cls-9{stroke-miterlimit:10;}.cls-2{font-size:36px;}.cls-10,.cls-2,.cls-3{font-family:Arial;}.cls-3{font-size:18px;}.cls-4,.cls-9{fill:none;}.cls-4{stroke-width:2px;}.cls-5{fill:#e6e7e8;stroke:#231f20;stroke-linecap:round;}.cls-6{fill:#bdccd4;}.cls-11,.cls-12,.cls-6,.cls-7,.cls-8{stroke-width:0.5px;}.cls-7{fill:#006837;}.cls-8{fill:#f7931e;}.cls-10{font-size:4.65px;}.cls-11{fill:#dfdfdf;}</style></defs><title>qixclient</title><rect class="cls-1" x="275.53" y="0.5" width="175.36" height="340.58"/><rect class="cls-1" x="0.5" y="0.5" width="175.36" height="340.58"/><text class="cls-2" transform="translate(32.46 43.98)">Engine</text><text class="cls-2" transform="translate(315.88 43.98)">Client</text><text class="cls-3" transform="translate(28.76 135.73)">Generic Object</text><text class="cls-3" transform="translate(28.76 241.7)">Generic Object</text><line class="cls-4" x1="191.08" y1="128.76" x2="255.76" y2="128.76"/><polygon points="262.82 128.76 252.87 132.83 255.23 128.76 252.87 124.7 262.82 128.76"/><line class="cls-4" x1="191.08" y1="238.18" x2="255.76" y2="238.18"/><polygon points="262.82 238.18 252.87 242.25 255.23 238.18 252.87 234.12 262.82 238.18"/><path class="cls-5" d="M503.88,258.13" transform="translate(-108.46 -101.11)"/><path class="cls-5" d="M467.65,236.39" transform="translate(-108.46 -101.11)"/><path class="cls-5" d="M467.65,237.12" transform="translate(-108.46 -101.11)"/><path class="cls-5" d="M435,262.48" transform="translate(-108.46 -101.11)"/><path class="cls-6" d="M471.68,229.86l16.11,44.28a47.12,47.12,0,0,1-32.23-88.55,44.86,44.86,0,0,1,16.11-2.84v47.12Z" transform="translate(-108.46 -101.11)"/><path class="cls-7" d="M471.68,229.86L502,193.77a47.12,47.12,0,0,1,5.81,66.38,45,45,0,0,1-20,14Z" transform="translate(-108.46 -101.11)"/><path class="cls-8" d="M471.68,229.86V182.75a45.29,45.29,0,0,1,30.29,11Z" transform="translate(-108.46 -101.11)"/><line class="cls-9" x1="315.02" y1="287.43" x2="414.24" y2="287.43"/><line class="cls-9" x1="315.02" y1="287.43" x2="315.02" y2="285.28"/><line class="cls-9" x1="348.09" y1="287.43" x2="348.09" y2="285.28"/><line class="cls-9" x1="381.17" y1="287.43" x2="381.17" y2="285.28"/><line class="cls-9" x1="414.24" y1="287.43" x2="414.24" y2="285.28"/><text class="cls-10" transform="translate(307 289.18)">0.0</text><text class="cls-10" transform="translate(307 278.4)">0.5</text><text class="cls-10" transform="translate(307 267.63)">1.0</text><text class="cls-10" transform="translate(307 256.86)">1.5</text><text class="cls-10" transform="translate(307 246.08)">2.0</text><text class="cls-10" transform="translate(307 235.31)">2.5</text><text class="cls-10" transform="translate(307 224.54)">3.0</text><text class="cls-10" transform="translate(307 213.77)">3.5</text><text class="cls-10" transform="translate(307 202.99)">4.0</text><line class="cls-9" x1="315.02" y1="287.43" x2="315.02" y2="201.25"/><line class="cls-9" x1="315.02" y1="287.43" x2="317.5" y2="287.43"/><line class="cls-9" x1="315.02" y1="276.66" x2="317.5" y2="276.66"/><line class="cls-9" x1="315.02" y1="265.89" x2="317.5" y2="265.89"/><line class="cls-9" x1="315.02" y1="255.11" x2="317.5" y2="255.11"/><line class="cls-9" x1="315.02" y1="244.34" x2="317.5" y2="244.34"/><line class="cls-9" x1="315.02" y1="233.57" x2="317.5" y2="233.57"/><line class="cls-9" x1="315.02" y1="222.8" x2="317.5" y2="222.8"/><line class="cls-9" x1="315.02" y1="212.02" x2="317.5" y2="212.02"/><line class="cls-9" x1="315.02" y1="201.25" x2="317.5" y2="201.25"/><rect class="cls-11" x="365.29" y="222.8" width="11.91" height="64.64"/><rect class="cls-12" x="318.99" y="265.89" width="11.91" height="21.55"/><rect class="cls-12" x="352.06" y="222.8" width="11.91" height="64.64"/><rect class="cls-12" x="385.14" y="201.25" width="11.91" height="86.18"/></svg>